<?xml version="1.0" encoding="UTF-8" standalone="no"?>
<svg
   xmlns:dc="http://purl.org/dc/elements/1.1/"
   xmlns:cc="http://creativecommons.org/ns#"
   xmlns:rdf="http://www.w3.org/1999/02/22-rdf-syntax-ns#"
   xmlns:svg="http://www.w3.org/2000/svg"
   xmlns="http://www.w3.org/2000/svg"
   xmlns:sodipodi="http://sodipodi.sourceforge.net/DTD/sodipodi-0.dtd"
   xmlns:inkscape="http://www.inkscape.org/namespaces/inkscape"
   version="1.1"
   id="svg2"
   xml:space="preserve"
   width="1365.16"
   height="1023.8747"
   viewBox="0 0 1365.16 1023.8747"
   sodipodi:docname="blog 2.ai"><metadata
     id="metadata8"><rdf:RDF><cc:Work
         rdf:about=""><dc:format>image/svg+xml</dc:format><dc:type
           rdf:resource="http://purl.org/dc/dcmitype/StillImage" /></cc:Work></rdf:RDF></metadata><defs
     id="defs6"><clipPath
       clipPathUnits="userSpaceOnUse"
       id="clipPath18"><path
         d="M 0,767.906 H 1023.874 V 0 H 0 Z"
         id="path16" /></clipPath></defs><sodipodi:namedview
     pagecolor="#ffffff"
     bordercolor="#666666"
     borderopacity="1"
     objecttolerance="10"
     gridtolerance="10"
     guidetolerance="10"
     inkscape:pageopacity="0"
     inkscape:pageshadow="2"
     inkscape:window-width="640"
     inkscape:window-height="480"
     id="namedview4" /><g
     id="g10"
     inkscape:groupmode="layer"
     inkscape:label="blog 2"
     transform="matrix(1.3333333,0,0,-1.3333333,0,1023.8747)"><g
       id="g12"><g
         id="g14"
         clip-path="url(#clipPath18)"><g
           id="g20"
           transform="translate(355.4463,383.9697)"><path
             d="m 0,0 c 0,-50.834 -41.209,-92.045 -92.044,-92.045 -50.835,0 -92.045,41.211 -92.045,92.045 0,50.834 41.21,92.044 92.045,92.044 C -41.209,92.044 0,50.834 0,0"
             style="fill:#ec1c24;fill-opacity:1;fill-rule:nonzero;stroke:none"
             id="path22" /></g><g
           id="g24"
           transform="translate(387.9248,345.2412)"><path
             d="m 0,0 h 24.694 c 3.294,0 6.09,0.066 8.397,0.195 2.303,0.129 4.346,0.389 6.123,0.78 1.778,0.386 3.392,0.937 4.84,1.656 1.446,0.717 2.898,1.592 4.348,2.633 3.553,2.468 6.32,5.812 8.295,10.037 1.975,4.222 2.965,8.603 2.965,13.154 0,6.889 -1.996,12.861 -5.987,17.932 -3.991,5.066 -9.125,8.252 -15.404,9.55 -2.488,0.519 -6.348,0.78 -11.58,0.78 H 10.009 V 68.492 H 25.71 c 5.754,0 10.009,0.356 12.755,1.074 2.749,0.718 5.429,2.183 8.047,4.402 2.749,2.34 4.937,5.273 6.576,8.795 1.634,3.519 2.452,7.036 2.452,10.555 0,6.123 -1.911,11.401 -5.732,15.831 -3.821,4.435 -8.696,7.103 -14.626,8.02 -1.45,0.257 -3.164,0.456 -5.139,0.585 -1.979,0.129 -4.35,0.195 -7.115,0.195 H 0 Z m -12.363,129.723 h 35.042 c 3.784,0 6.854,-0.033 9.204,-0.095 2.349,-0.071 4.305,-0.232 5.871,-0.494 4.307,-0.659 8.32,-2.004 12.039,-4.037 3.72,-2.037 6.919,-4.593 9.595,-7.679 2.674,-3.083 4.762,-6.597 6.266,-10.534 1.498,-3.937 2.251,-8.135 2.251,-12.599 0,-4.988 -0.852,-9.713 -2.551,-14.177 -1.704,-4.464 -4.19,-8.335 -7.458,-11.616 -0.917,-1.046 -1.8,-1.892 -2.651,-2.543 -0.852,-0.657 -2.06,-1.569 -3.63,-2.742 13.606,-7.962 20.41,-19.379 20.41,-34.258 0,-6.267 -1.336,-12.304 -4.004,-18.113 C 65.35,5.027 61.669,0.232 56.983,-3.551 c -2.084,-1.701 -4.101,-3.07 -6.055,-4.117 -1.956,-1.041 -4.105,-1.853 -6.449,-2.443 -2.342,-0.588 -5.078,-1.012 -8.202,-1.274 -3.128,-0.261 -6.968,-0.39 -11.523,-0.39 h -37.117 z"
             style="fill:#666666;fill-opacity:1;fill-rule:nonzero;stroke:none"
             id="path26" /></g><g
           id="g28"
           transform="translate(480.1626,474.9644)"><path
             d="m 0,0 h 12.363 v -129.723 h 51.418 v -11.776 H 0 Z"
             style="fill:#666666;fill-opacity:1;fill-rule:nonzero;stroke:none"
             id="path30" /></g><g
           id="g32"
           transform="translate(591.7539,460.9165)"><path
             d="m 0,0 c -7.354,-3.215 -13.785,-7.613 -19.299,-13.188 -5.514,-5.581 -9.842,-12.107 -12.99,-19.591 -3.154,-7.481 -4.727,-15.425 -4.727,-23.823 0,-8.529 1.573,-16.536 4.727,-24.021 3.148,-7.48 7.476,-14.009 12.99,-19.585 5.514,-5.584 11.945,-10.012 19.299,-13.293 7.35,-3.282 15.225,-4.92 23.627,-4.92 8.396,0 16.271,1.638 23.623,4.92 7.352,3.281 13.783,7.709 19.297,13.293 5.514,5.576 9.877,12.105 13.092,19.585 3.216,7.485 4.826,15.492 4.826,24.021 0,8.398 -1.61,16.342 -4.826,23.823 -3.215,7.484 -7.578,14.01 -13.092,19.591 C 61.033,-7.613 54.568,-3.215 47.15,0 39.736,3.215 31.83,4.825 23.428,4.825 15.16,4.825 7.35,3.215 0,0 m -43.697,-28.145 c 3.791,8.895 9.015,16.682 15.677,23.353 6.665,6.671 14.436,11.903 23.323,15.699 8.886,3.797 18.426,5.693 28.619,5.693 10.189,0 19.693,-1.93 28.514,-5.788 8.82,-3.863 16.529,-9.127 23.125,-15.799 6.601,-6.675 11.791,-14.458 15.584,-23.353 3.787,-8.899 5.683,-18.384 5.683,-28.461 0,-10.201 -1.93,-19.755 -5.783,-28.652 -3.856,-8.898 -9.078,-16.681 -15.678,-23.353 -6.601,-6.67 -14.34,-11.906 -23.226,-15.697 -8.887,-3.797 -18.358,-5.694 -28.418,-5.694 -10.192,0 -19.729,1.897 -28.614,5.694 -8.886,3.791 -16.627,9.027 -23.226,15.697 -6.6,6.672 -11.789,14.455 -15.58,23.353 -3.791,8.897 -5.684,18.451 -5.684,28.652 0,10.206 1.893,19.757 5.684,28.656"
             style="fill:#666666;fill-opacity:1;fill-rule:nonzero;stroke:none"
             id="path34" /></g><g
           id="g36"
           transform="translate(825.3672,443.7617)"><path
             d="m 0,0 c -1.834,2.224 -3.27,3.858 -4.314,4.908 -1.051,1.045 -2.291,2.157 -3.731,3.336 -5.494,4.443 -11.613,7.878 -18.35,10.301 -6.742,2.418 -13.642,3.63 -20.703,3.63 -8.509,0 -16.457,-1.634 -23.847,-4.904 -7.393,-3.273 -13.903,-7.688 -19.528,-13.247 -5.625,-5.564 -10.041,-12.106 -13.248,-19.628 -3.207,-7.525 -4.806,-15.471 -4.806,-23.843 0,-8.376 1.599,-16.226 4.806,-23.552 3.207,-7.326 7.59,-13.736 13.153,-19.234 5.558,-5.493 12.035,-9.844 19.429,-13.047 7.389,-3.207 15.338,-4.809 23.842,-4.809 7.85,0 15.176,1.307 21.981,3.924 6.804,2.615 12.886,6.311 18.253,11.09 5.362,4.771 9.78,10.496 13.249,17.172 3.462,6.672 5.787,14.06 6.964,22.175 h -36.895 v 11.774 h 50.438 c 0,-11.413 -1.834,-21.934 -5.498,-31.576 -3.664,-9.641 -8.799,-17.936 -15.404,-24.889 -6.609,-6.953 -14.459,-12.396 -23.553,-16.328 -9.093,-3.934 -19.006,-5.904 -29.73,-5.904 -10.205,0 -19.789,1.892 -28.75,5.675 -8.965,3.788 -16.774,8.969 -23.438,15.563 -6.658,6.588 -11.855,14.32 -15.597,23.195 -3.743,8.873 -5.614,18.333 -5.614,28.378 0,10.176 1.871,19.768 5.614,28.771 3.742,9.003 8.968,16.836 15.697,23.49 6.726,6.655 14.633,11.903 23.726,15.757 9.096,3.846 18.874,5.775 29.342,5.775 10.862,0 20.705,-1.999 29.539,-5.986 C -8.145,23.971 0.588,17.4 9.227,8.244 Z"
             style="fill:#666666;fill-opacity:1;fill-rule:nonzero;stroke:none"
             id="path38" /></g><g
           id="g40"
           transform="translate(378.3433,310.7148)"><path
             d="M 0,0 3.83,-12.649 10.302,1.133 16.775,-12.649 20.632,0 H 23.76 L 17.503,-20.524 10.302,-5.448 3.102,-20.524 -3.128,0 Z"
             style="fill:#4c4c4c;fill-opacity:1;fill-rule:nonzero;stroke:none"
             id="path42" /></g><g
           id="g44"
           transform="translate(406.6343,300.0078)"><path
             d="M 0,0 H 4.936 L 2.481,5.583 Z M 2.481,11.731 12.19,-8.738 H 8.954 l -2.886,6.094 h -7.173 l -2.886,-6.094 h -3.237 z"
             style="fill:#4c4c4c;fill-opacity:1;fill-rule:nonzero;stroke:none"
             id="path46" /></g><g
           id="g48"
           transform="translate(415.7231,310.7148)"><path
             d="M 0,0 H 13.296 V -2.563 H 8.118 V -19.445 H 5.043 v 16.882 l -5.043,0 z"
             style="fill:#4c4c4c;fill-opacity:1;fill-rule:nonzero;stroke:none"
             id="path50" /></g><g
           id="g52"
           transform="translate(429.9897,310.7148)"><path
             d="M 0,0 H 11.327 V -2.67 H 3.048 V -8.334 H 11.3 v -2.562 H 3.048 v -5.987 h 8.576 v -2.562 H 0 Z"
             style="fill:#4c4c4c;fill-opacity:1;fill-rule:nonzero;stroke:none"
             id="path54" /></g><g
           id="g56"
           transform="translate(444.1211,310.7148)"><path
             d="m 0,0 h 6.042 1.064 0.769 c 0.773,-0.072 1.479,-0.267 2.117,-0.582 0.638,-0.315 1.187,-0.721 1.646,-1.217 0.458,-0.495 0.813,-1.072 1.065,-1.73 0.252,-0.659 0.378,-1.367 0.378,-2.123 0,-1.46 -0.41,-2.66 -1.227,-3.597 -0.819,-0.938 -1.956,-1.523 -3.413,-1.758 l 5.907,-7.382 -2.373,-1.73 -8.603,11.434 h 1.159 l 1.025,-0.026 c 0.287,-0.018 0.553,-0.018 0.796,0 0.242,0.018 0.444,0.035 0.606,0.054 0.971,0.09 1.727,0.399 2.266,0.93 0.539,0.53 0.809,1.2 0.809,2.009 0,0.503 -0.108,0.975 -0.324,1.416 -0.215,0.441 -0.512,0.796 -0.89,1.066 -0.341,0.233 -0.751,0.404 -1.227,0.511 -0.476,0.109 -1.056,0.162 -1.739,0.162 H 3.048 V -19.445 H 0 Z"
             style="fill:#4c4c4c;fill-opacity:1;fill-rule:nonzero;stroke:none"
             id="path58" /></g><g
           id="g60"
           transform="translate(467.6382,310.7148)"><path
             d="m 0,0 h 6.081 c 2.27,0 3.991,-0.495 5.162,-1.483 1.171,-0.99 1.757,-2.419 1.757,-4.288 0,-1.097 -0.228,-2.069 -0.681,-2.914 -0.453,-0.844 -1.134,-1.501 -2.041,-1.968 -0.307,-0.162 -0.609,-0.297 -0.906,-0.405 -0.297,-0.108 -0.62,-0.188 -0.971,-0.243 -0.35,-0.053 -0.746,-0.094 -1.187,-0.121 -0.44,-0.027 -0.957,-0.04 -1.55,-0.04 H 4.261 v 2.67 h 1.241 c 0.306,0 0.602,0.004 0.89,0.013 0.287,0.009 0.548,0.031 0.782,0.068 0.881,0.089 1.578,0.404 2.09,0.943 0.513,0.539 0.769,1.205 0.769,1.997 0,0.502 -0.113,0.974 -0.337,1.416 -0.225,0.44 -0.526,0.794 -0.904,1.064 -0.306,0.216 -0.683,0.378 -1.132,0.486 -0.45,0.108 -1.016,0.161 -1.7,0.161 H 3.048 V -19.445 H 0 Z"
             style="fill:#4c4c4c;fill-opacity:1;fill-rule:nonzero;stroke:none"
             id="path62" /></g><g
           id="g64"
           transform="translate(482.2827,310.7148)"><path
             d="m 0,0 h 6.042 1.064 0.769 c 0.773,-0.072 1.479,-0.267 2.117,-0.582 0.638,-0.315 1.187,-0.721 1.646,-1.217 0.458,-0.495 0.813,-1.072 1.065,-1.73 0.252,-0.659 0.378,-1.367 0.378,-2.123 0,-1.46 -0.41,-2.66 -1.227,-3.597 -0.819,-0.938 -1.956,-1.523 -3.413,-1.758 l 5.907,-7.382 -2.373,-1.73 -8.603,11.434 h 1.159 l 1.025,-0.026 c 0.287,-0.018 0.553,-0.018 0.796,0 0.242,0.018 0.444,0.035 0.606,0.054 0.971,0.09 1.727,0.399 2.266,0.93 0.539,0.53 0.809,1.2 0.809,2.009 0,0.503 -0.108,0.975 -0.324,1.416 -0.215,0.441 -0.512,0.796 -0.89,1.066 -0.341,0.233 -0.751,0.404 -1.227,0.511 -0.476,0.109 -1.056,0.162 -1.739,0.162 H 3.048 V -19.445 H 0 Z"
             style="fill:#4c4c4c;fill-opacity:1;fill-rule:nonzero;stroke:none"
             id="path66" /></g><g
           id="g68"
           transform="translate(504.667,307.6377)"><path
             d="m 0,0 c -0.863,-0.379 -1.618,-0.894 -2.265,-1.543 -0.648,-0.649 -1.16,-1.412 -1.538,-2.287 -0.377,-0.876 -0.566,-1.81 -0.566,-2.802 0,-0.993 0.189,-1.922 0.566,-2.789 0.378,-0.866 0.89,-1.624 1.538,-2.274 0.647,-0.65 1.402,-1.163 2.265,-1.542 0.863,-0.38 1.789,-0.569 2.778,-0.569 0.989,0 1.919,0.189 2.791,0.569 0.872,0.379 1.632,0.892 2.279,1.542 0.647,0.65 1.16,1.408 1.538,2.274 0.377,0.867 0.566,1.796 0.566,2.789 0,0.992 -0.189,1.926 -0.566,2.802 C 9.008,-2.955 8.495,-2.192 7.848,-1.543 7.201,-0.894 6.441,-0.379 5.569,0 4.697,0.379 3.767,0.568 2.778,0.568 1.789,0.568 0.863,0.379 0,0 m -6.473,-2.748 c 0.522,1.222 1.236,2.287 2.144,3.195 0.908,0.908 1.974,1.627 3.196,2.157 C 0.09,3.135 1.402,3.4 2.805,3.4 4.171,3.4 5.461,3.135 6.675,2.604 7.889,2.074 8.949,1.355 9.857,0.447 c 0.908,-0.908 1.622,-1.973 2.144,-3.195 0.521,-1.224 0.783,-2.526 0.783,-3.911 0,-1.385 -0.262,-2.689 -0.783,-3.91 -0.522,-1.224 -1.236,-2.288 -2.144,-3.197 -0.908,-0.908 -1.968,-1.627 -3.182,-2.157 -1.214,-0.53 -2.513,-0.796 -3.897,-0.796 -1.385,0 -2.688,0.266 -3.911,0.796 -1.222,0.53 -2.288,1.249 -3.196,2.157 -0.908,0.909 -1.622,1.973 -2.144,3.197 -0.521,1.221 -0.782,2.525 -0.782,3.91 0,1.385 0.261,2.687 0.782,3.911"
             style="fill:#4c4c4c;fill-opacity:1;fill-rule:nonzero;stroke:none"
             id="path70" /></g><g
           id="g72"
           transform="translate(526.6475,307.6377)"><path
             d="m 0,0 c -0.863,-0.379 -1.618,-0.894 -2.266,-1.543 -0.647,-0.649 -1.159,-1.412 -1.537,-2.287 -0.378,-0.876 -0.566,-1.81 -0.566,-2.802 0,-0.993 0.188,-1.922 0.566,-2.789 0.378,-0.866 0.89,-1.624 1.537,-2.274 0.648,-0.65 1.403,-1.163 2.266,-1.542 0.863,-0.38 1.789,-0.569 2.777,-0.569 0.99,0 1.92,0.189 2.792,0.569 0.872,0.379 1.632,0.892 2.279,1.542 0.647,0.65 1.16,1.408 1.538,2.274 0.377,0.867 0.566,1.796 0.566,2.789 0,0.992 -0.189,1.926 -0.566,2.802 C 9.008,-2.955 8.495,-2.192 7.848,-1.543 7.201,-0.894 6.441,-0.379 5.569,0 4.697,0.379 3.767,0.568 2.777,0.568 1.789,0.568 0.863,0.379 0,0 m -6.474,-2.748 c 0.522,1.222 1.237,2.287 2.145,3.195 0.908,0.908 1.974,1.627 3.196,2.157 C 0.09,3.135 1.402,3.4 2.805,3.4 4.171,3.4 5.461,3.135 6.675,2.604 7.889,2.074 8.949,1.355 9.857,0.447 c 0.908,-0.908 1.622,-1.973 2.144,-3.195 0.521,-1.224 0.783,-2.526 0.783,-3.911 0,-1.385 -0.262,-2.689 -0.783,-3.91 -0.522,-1.224 -1.236,-2.288 -2.144,-3.197 -0.908,-0.908 -1.968,-1.627 -3.182,-2.157 -1.214,-0.53 -2.513,-0.796 -3.898,-0.796 -1.384,0 -2.687,0.266 -3.91,0.796 -1.222,0.53 -2.288,1.249 -3.196,2.157 -0.908,0.909 -1.623,1.973 -2.145,3.197 -0.521,1.221 -0.781,2.525 -0.781,3.91 0,1.385 0.26,2.687 0.781,3.911"
             style="fill:#4c4c4c;fill-opacity:1;fill-rule:nonzero;stroke:none"
             id="path74" /></g><g
           id="g76"
           transform="translate(541.9385,310.7148)"><path
             d="m 0,0 h 11.354 v -2.644 h -8.28 v -5.744 h 8.227 V -10.95 H 3.074 v -8.495 H 0 Z"
             style="fill:#4c4c4c;fill-opacity:1;fill-rule:nonzero;stroke:none"
             id="path78" /></g><g
           id="g80"
           transform="translate(571.5518,300.6553)"><path
             d="m 0,0 h -1.673 -1.105 c -0.576,0 -1.106,-0.087 -1.591,-0.259 -0.485,-0.172 -0.9,-0.412 -1.241,-0.72 -0.342,-0.308 -0.607,-0.675 -0.795,-1.101 -0.19,-0.426 -0.283,-0.884 -0.283,-1.373 0,-0.471 0.089,-0.91 0.269,-1.318 0.18,-0.409 0.418,-0.766 0.715,-1.074 0.297,-0.308 0.647,-0.552 1.052,-0.734 0.404,-0.181 0.831,-0.272 1.281,-0.272 1.078,0 1.91,0.39 2.494,1.169 C -0.293,-4.902 0,-3.797 0,-2.365 Z m -8.32,2.791 c -0.297,0.566 -0.446,1.29 -0.446,2.171 0,0.773 0.14,1.492 0.418,2.158 0.28,0.664 0.661,1.24 1.147,1.726 0.485,0.485 1.065,0.863 1.739,1.133 0.675,0.269 1.407,0.404 2.198,0.404 0.773,0 1.456,-0.117 2.05,-0.351 C -0.962,9.925 -0.742,9.816 -0.553,9.709 -0.364,9.601 -0.117,9.43 0.188,9.196 L -1.564,6.85 C -1.87,7.12 -2.149,7.304 -2.4,7.402 -2.652,7.501 -2.949,7.551 -3.291,7.551 -3.632,7.551 -3.956,7.483 -4.262,7.349 -4.567,7.214 -4.832,7.029 -5.057,6.796 -5.282,6.563 -5.462,6.292 -5.597,5.987 -5.731,5.681 -5.799,5.357 -5.799,5.016 c 0,-0.36 0.099,-0.714 0.297,-1.065 0.197,-0.35 0.449,-0.625 0.755,-0.823 0.269,-0.18 0.616,-0.306 1.038,-0.377 0.423,-0.072 1.012,-0.108 1.767,-0.108 H 0.081 V 5.34 H 3.047 V 2.615 h 1.43 V -0.027 H 2.967 V -2.212 C 2.967,-3.345 2.818,-4.374 2.522,-5.3 2.227,-6.227 1.801,-7.013 1.244,-7.66 0.688,-8.307 0.023,-8.806 -0.747,-9.156 -1.519,-9.507 -2.39,-9.683 -3.358,-9.683 c -0.897,0 -1.727,0.162 -2.49,0.486 -0.762,0.324 -1.426,0.768 -1.991,1.335 -0.565,0.566 -1.01,1.227 -1.332,1.982 -0.323,0.755 -0.484,1.573 -0.484,2.454 0,2.194 0.917,3.812 2.751,4.855 -0.648,0.342 -1.119,0.796 -1.416,1.362"
             style="fill:#4c4c4c;fill-opacity:1;fill-rule:nonzero;stroke:none"
             id="path82" /></g><g
           id="g84"
           transform="translate(583.6602,310.7148)"><path
             d="M 0,0 H 13.297 V -2.563 H 8.118 V -19.445 H 5.044 v 16.882 l -5.044,0 z"
             style="fill:#4c4c4c;fill-opacity:1;fill-rule:nonzero;stroke:none"
             id="path86" /></g><g
           id="g88"
           transform="translate(597.9268,310.7148)"><path
             d="m 0,0 h 3.102 v -8.037 h 8.926 V 0 h 3.076 v -19.445 h -2.967 v 8.738 H 3.048 v -8.738 H 0 Z"
             style="fill:#4c4c4c;fill-opacity:1;fill-rule:nonzero;stroke:none"
             id="path90" /></g><g
           id="g92"
           transform="translate(616.1309,310.7148)"><path
             d="M 0,0 H 11.327 V -2.67 H 3.048 v -5.664 h 8.253 v -2.562 H 3.048 v -5.987 h 8.576 v -2.562 H 0 Z"
             style="fill:#4c4c4c;fill-opacity:1;fill-rule:nonzero;stroke:none"
             id="path94" /></g><g
           id="g96"
           transform="translate(630.2627,310.7148)"><path
             d="m 0,0 h 6.041 1.065 0.769 c 0.773,-0.072 1.479,-0.267 2.117,-0.582 0.639,-0.315 1.187,-0.721 1.646,-1.217 0.458,-0.495 0.813,-1.072 1.065,-1.73 0.251,-0.659 0.377,-1.367 0.377,-2.123 0,-1.46 -0.409,-2.66 -1.226,-3.597 -0.819,-0.938 -1.956,-1.523 -3.413,-1.758 l 5.907,-7.382 -2.373,-1.73 -8.604,11.434 h 1.16 l 1.025,-0.026 c 0.288,-0.018 0.552,-0.018 0.796,0 0.242,0.018 0.445,0.035 0.606,0.054 0.972,0.09 1.727,0.399 2.266,0.93 0.539,0.53 0.809,1.2 0.809,2.009 0,0.503 -0.108,0.975 -0.324,1.416 -0.216,0.441 -0.512,0.796 -0.89,1.066 -0.341,0.233 -0.751,0.404 -1.227,0.511 -0.477,0.109 -1.057,0.162 -1.739,0.162 H 3.048 V -19.445 H 0 Z"
             style="fill:#4c4c4c;fill-opacity:1;fill-rule:nonzero;stroke:none"
             id="path98" /></g><g
           id="g100"
           transform="translate(650.9756,312.1709)"><path
             d="M 0,0 7.12,-15.211 14.24,0 21.171,-20.901 H 18.016 L 13.7,-7.605 7.12,-21.333 0.539,-7.605 -3.775,-20.901 h -3.157 z"
             style="fill:#4c4c4c;fill-opacity:1;fill-rule:nonzero;stroke:none"
             id="path102" /></g><g
           id="g104"
           transform="translate(678.2412,300.0078)"><path
             d="M 0,0 H 4.936 L 2.48,5.583 Z M 2.48,11.731 12.189,-8.738 H 8.953 l -2.886,6.094 h -7.173 l -2.886,-6.094 h -3.237 z"
             style="fill:#4c4c4c;fill-opacity:1;fill-rule:nonzero;stroke:none"
             id="path106" /></g><g
           id="g108"
           transform="translate(691.5908,310.7148)"><path
             d="m 0,0 h 3.074 v -16.803 h 6.338 v -2.642 H 0 Z"
             style="fill:#4c4c4c;fill-opacity:1;fill-rule:nonzero;stroke:none"
             id="path110" /></g><path
           d="m 710.199,310.715 h 2.967 V 291.27 h -2.967 z"
           style="fill:#4c4c4c;fill-opacity:1;fill-rule:nonzero;stroke:none"
           id="path112" /><g
           id="g114"
           transform="translate(716.2676,311.5508)"><path
             d="m 0,0 14.294,-14.779 c -0.09,0.251 -0.162,0.48 -0.216,0.687 -0.054,0.207 -0.099,0.409 -0.135,0.607 -0.036,0.198 -0.058,0.395 -0.067,0.593 -0.009,0.198 -0.014,0.422 -0.014,0.674 v 11.382 h 3.183 V -21.333 L 2.778,-6.284 C 2.903,-6.698 2.989,-7.066 3.034,-7.39 3.079,-7.714 3.102,-8.082 3.102,-8.495 V -20.281 H 0 Z"
             style="fill:#4c4c4c;fill-opacity:1;fill-rule:nonzero;stroke:none"
             id="path116" /></g><g
           id="g118"
           transform="translate(738.4082,297.041)"><path
             d="m 0,0 c 0.019,-0.485 0.112,-0.926 0.282,-1.321 0.17,-0.396 0.404,-0.738 0.699,-1.026 0.295,-0.287 0.649,-0.511 1.061,-0.674 0.412,-0.162 0.859,-0.243 1.343,-0.243 0.483,0 0.931,0.081 1.344,0.243 0.411,0.163 0.769,0.387 1.074,0.674 0.303,0.288 0.541,0.63 0.712,1.026 0.17,0.395 0.255,0.817 0.255,1.267 0,0.306 -0.045,0.602 -0.135,0.89 C 6.545,1.123 6.428,1.385 6.284,1.618 6.051,1.96 5.735,2.238 5.341,2.454 5.196,2.525 5.066,2.589 4.949,2.643 4.832,2.697 4.688,2.751 4.518,2.805 4.347,2.858 4.141,2.917 3.897,2.98 3.655,3.043 3.335,3.129 2.94,3.236 2.526,3.344 2.172,3.438 1.875,3.52 1.578,3.601 1.317,3.682 1.093,3.763 0.867,3.843 0.67,3.915 0.499,3.978 0.328,4.041 0.162,4.117 0,4.207 -0.755,4.566 -1.348,5.115 -1.779,5.853 -2.211,6.59 -2.427,7.398 -2.427,8.279 c 0,0.827 0.141,1.582 0.424,2.266 0.282,0.684 0.675,1.276 1.179,1.78 0.503,0.503 1.112,0.895 1.828,1.173 0.716,0.278 1.495,0.418 2.341,0.418 1.672,0 3.011,-0.444 4.018,-1.335 1.007,-0.89 1.636,-2.188 1.888,-3.896 H 6.23 c -0.36,1.599 -1.331,2.4 -2.913,2.4 -0.791,0 -1.452,-0.249 -1.982,-0.745 C 0.805,9.845 0.54,9.218 0.54,8.46 0.54,8.081 0.621,7.743 0.782,7.445 0.944,7.148 1.178,6.918 1.483,6.756 1.573,6.701 1.668,6.656 1.767,6.62 1.865,6.584 1.991,6.539 2.145,6.485 2.297,6.431 2.495,6.368 2.738,6.296 2.98,6.224 3.3,6.134 3.695,6.025 4.217,5.881 4.64,5.759 4.963,5.66 5.286,5.561 5.561,5.47 5.785,5.39 6.01,5.309 6.208,5.223 6.379,5.133 6.55,5.042 6.743,4.943 6.959,4.835 7.821,4.384 8.5,3.739 8.995,2.9 9.489,2.062 9.736,1.129 9.736,0.101 9.736,-0.766 9.575,-1.577 9.253,-2.335 8.931,-3.092 8.492,-3.746 7.938,-4.296 7.382,-4.847 6.72,-5.284 5.95,-5.608 5.18,-5.933 4.356,-6.095 3.479,-6.095 c -0.949,0 -1.813,0.144 -2.591,0.431 -0.78,0.288 -1.451,0.697 -2.015,1.227 -0.563,0.531 -1.002,1.169 -1.315,1.916 -0.315,0.746 -0.489,1.585 -0.524,2.521 z"
             style="fill:#4c4c4c;fill-opacity:1;fill-rule:nonzero;stroke:none"
             id="path120" /></g><g
           id="g122"
           transform="translate(766.5918,299.792)"><path
             d="m 0,0 c 0,-0.468 -0.022,-0.917 -0.067,-1.349 -0.045,-0.431 -0.094,-0.818 -0.148,-1.159 -0.18,-0.989 -0.498,-1.884 -0.954,-2.683 -0.457,-0.801 -1.026,-1.484 -1.707,-2.05 -0.681,-0.567 -1.461,-1.003 -2.338,-1.309 -0.879,-0.304 -1.81,-0.458 -2.796,-0.458 -1.326,0 -2.545,0.27 -3.655,0.809 -1.111,0.54 -2.016,1.303 -2.715,2.293 -0.537,0.772 -0.928,1.604 -1.169,2.494 -0.242,0.891 -0.363,2.018 -0.363,3.385 v 10.95 h 3.048 V 0.018 c 0,-0.36 0.004,-0.706 0.013,-1.038 0.009,-0.332 0.032,-0.624 0.068,-0.875 0.071,-0.628 0.247,-1.207 0.525,-1.737 0.279,-0.529 0.629,-0.983 1.052,-1.359 0.423,-0.377 0.908,-0.669 1.457,-0.875 0.548,-0.207 1.137,-0.31 1.767,-0.31 0.79,0 1.527,0.175 2.211,0.525 0.683,0.349 1.25,0.83 1.699,1.441 0.395,0.521 0.678,1.095 0.849,1.723 0.171,0.629 0.256,1.427 0.256,2.396 V 10.923 H 0 Z"
             style="fill:#4c4c4c;fill-opacity:1;fill-rule:nonzero;stroke:none"
             id="path124" /></g><g
           id="g126"
           transform="translate(769.7207,310.7148)"><path
             d="m 0,0 h 3.074 v -16.803 h 6.338 v -2.642 H 0 Z"
             style="fill:#4c4c4c;fill-opacity:1;fill-rule:nonzero;stroke:none"
             id="path128" /></g><g
           id="g130"
           transform="translate(784.0684,300.0078)"><path
             d="M 0,0 H 4.936 L 2.48,5.583 Z M 2.48,11.731 12.189,-8.738 H 8.953 l -2.886,6.094 h -7.173 l -2.886,-6.094 h -3.237 z"
             style="fill:#4c4c4c;fill-opacity:1;fill-rule:nonzero;stroke:none"
             id="path132" /></g><g
           id="g134"
           transform="translate(793.1563,310.7148)"><path
             d="M 0,0 H 13.297 V -2.563 H 8.118 V -19.445 H 5.044 v 16.882 l -5.044,0 z"
             style="fill:#4c4c4c;fill-opacity:1;fill-rule:nonzero;stroke:none"
             id="path136" /></g><path
           d="m 807.424,310.715 h 2.967 V 291.27 h -2.967 z"
           style="fill:#4c4c4c;fill-opacity:1;fill-rule:nonzero;stroke:none"
           id="path138" /><g
           id="g140"
           transform="translate(820.1797,307.6377)"><path
             d="m 0,0 c -0.863,-0.379 -1.618,-0.894 -2.266,-1.543 -0.646,-0.649 -1.159,-1.412 -1.537,-2.287 -0.377,-0.876 -0.566,-1.81 -0.566,-2.802 0,-0.993 0.189,-1.922 0.566,-2.789 0.378,-0.866 0.891,-1.624 1.537,-2.274 0.648,-0.65 1.403,-1.163 2.266,-1.542 0.863,-0.38 1.789,-0.569 2.778,-0.569 0.989,0 1.919,0.189 2.791,0.569 0.872,0.379 1.632,0.892 2.28,1.542 0.646,0.65 1.159,1.408 1.537,2.274 0.377,0.867 0.566,1.796 0.566,2.789 0,0.992 -0.189,1.926 -0.566,2.802 C 9.008,-2.955 8.495,-2.192 7.849,-1.543 7.201,-0.894 6.441,-0.379 5.569,0 4.697,0.379 3.767,0.568 2.778,0.568 1.789,0.568 0.863,0.379 0,0 m -6.473,-2.748 c 0.522,1.222 1.237,2.287 2.145,3.195 0.907,0.908 1.973,1.627 3.195,2.157 C 0.09,3.135 1.402,3.4 2.805,3.4 4.171,3.4 5.462,3.135 6.675,2.604 7.889,2.074 8.949,1.355 9.857,0.447 c 0.909,-0.908 1.622,-1.973 2.145,-3.195 0.52,-1.224 0.782,-2.526 0.782,-3.911 0,-1.385 -0.262,-2.689 -0.782,-3.91 -0.523,-1.224 -1.236,-2.288 -2.145,-3.197 -0.908,-0.908 -1.968,-1.627 -3.182,-2.157 -1.213,-0.53 -2.513,-0.796 -3.897,-0.796 -1.384,0 -2.688,0.266 -3.911,0.796 -1.222,0.53 -2.288,1.249 -3.195,2.157 -0.908,0.909 -1.623,1.973 -2.145,3.197 -0.521,1.221 -0.782,2.525 -0.782,3.91 0,1.385 0.261,2.687 0.782,3.911"
             style="fill:#4c4c4c;fill-opacity:1;fill-rule:nonzero;stroke:none"
             id="path142" /></g><g
           id="g144"
           transform="translate(835.4717,311.5508)"><path
             d="m 0,0 14.294,-14.779 c -0.09,0.251 -0.162,0.48 -0.216,0.687 -0.054,0.207 -0.099,0.409 -0.135,0.607 -0.036,0.198 -0.058,0.395 -0.067,0.593 -0.009,0.198 -0.014,0.422 -0.014,0.674 v 11.382 h 3.183 V -21.333 L 2.778,-6.284 C 2.903,-6.698 2.989,-7.066 3.034,-7.39 3.079,-7.714 3.102,-8.082 3.102,-8.495 V -20.281 H 0 Z"
             style="fill:#4c4c4c;fill-opacity:1;fill-rule:nonzero;stroke:none"
             id="path146" /></g><g
           id="g148"
           transform="translate(267.7476,347.5479)"><path
             d="m 0,0 h -11.784 v -21.383 c -8.124,1.182 -15.517,3.502 -22.196,6.975 -6.682,3.467 -12.411,7.89 -17.185,13.254 -4.783,5.373 -8.483,11.463 -11.1,18.275 -2.621,6.809 -3.926,14.139 -3.926,21.998 0,8.512 1.601,16.465 4.813,23.863 3.204,7.397 7.561,13.882 13.056,19.441 5.503,5.568 11.919,9.953 19.254,13.168 7.331,3.207 15.189,4.809 23.571,4.809 8.378,0 16.33,-1.602 23.862,-4.809 7.53,-3.215 14.076,-7.63 19.644,-13.263 5.566,-5.626 9.982,-12.139 13.26,-19.541 3.271,-7.397 4.905,-15.35 4.905,-23.867 0,-7.07 -1.211,-13.975 -3.634,-20.719 C 50.119,11.455 46.68,5.33 42.232,-0.17 41.054,-1.609 39.94,-2.85 38.893,-3.9 c -1.05,-1.045 -2.685,-2.485 -4.91,-4.319 l 8.249,-9.23 c 9.163,8.64 15.739,17.383 19.743,26.215 3.986,8.841 5.988,18.695 5.988,29.568 0,10.476 -1.931,20.263 -5.779,29.366 -3.856,9.097 -9.109,17.013 -15.771,23.743 -6.662,6.742 -14.498,11.973 -23.51,15.715 -9.01,3.742 -18.609,5.622 -28.798,5.622 -10.05,0 -19.518,-1.88 -28.4,-5.622 -8.879,-3.742 -16.622,-8.949 -23.215,-15.612 -6.596,-6.667 -11.784,-14.487 -15.574,-23.457 -3.786,-8.969 -5.682,-18.561 -5.682,-28.776 0,-10.737 1.974,-20.653 5.91,-29.758 3.937,-9.098 9.384,-16.953 16.342,-23.571 6.959,-6.611 15.261,-11.752 24.911,-15.42 9.652,-3.664 20.18,-5.502 31.603,-5.502 z"
             style="fill:#ffffff;fill-opacity:1;fill-rule:nonzero;stroke:none"
             id="path150" /></g><path
           d="m 256.082,373.499 h 12.496 v 40.379 h -12.496 z"
           style="fill:#ffffff;fill-opacity:1;fill-rule:nonzero;stroke:none"
           id="path152" /><path
           d="m 276.827,373.499 h 12.496 v 40.379 h -12.496 z"
           style="fill:#ffffff;fill-opacity:1;fill-rule:nonzero;stroke:none"
           id="path154" /></g></g></g></svg>
